<svg width="452" height="174" viewBox="0 0 452 174" fill="none" xmlns="http://www.w3.org/2000/svg">
<rect width="155.489" height="174" rx="37.0213" fill="#86A3B8"/>
<path d="M43.2541 137.702V34.3028H89.5307C110.644 34.3028 121.201 44.0161 121.201 63.4426C121.201 84.5081 106.764 97.2583 77.8893 101.693L75.1416 84.6286C92.4953 81.4953 101.172 74.6262 101.172 64.0211C101.172 55.4406 96.882 51.1504 88.3015 51.1504H62.4156V137.702H43.2541Z" fill="white"/>
<path d="M191.043 87.7021V23.0776H219.966C233.162 23.0776 239.76 29.1484 239.76 41.2899C239.76 54.4559 230.736 62.4247 212.69 65.1965L210.972 54.5312C221.819 52.5729 227.242 48.2796 227.242 41.6515C227.242 36.2887 224.56 33.6073 219.197 33.6073H203.019V87.7021H191.043ZM254.357 87.7021H242.065L269.496 23.0776H282.376L310.395 87.7021H297.515L290.149 70.0772H268.683L272.795 59.6831H285.81L275.642 35.415L254.357 87.7021ZM369.822 84.9906C364.249 87.0996 357.922 88.154 350.842 88.154C327.643 88.154 316.044 76.9314 316.044 54.486C316.044 33.2458 327.643 22.6257 350.842 22.6257C357.922 22.6257 364.249 23.6801 369.822 25.7891V36.6352C364.249 34.2249 358.223 33.0198 351.746 33.0198C336.23 33.0198 328.472 40.1752 328.472 54.486C328.472 70.0019 336.23 77.7599 351.746 77.7599C358.223 77.7599 364.249 76.5548 369.822 74.1445V84.9906ZM425.363 23.0776V33.3813H393.006V49.6505H423.827V60.361H392.87V77.308H425.996V87.7021H381.12V23.0776H425.363Z" fill="#00043C"/>
<path d="M191.692 147.468V125.928H194.3V136.614H194.552L204.228 125.928H207.636L198.591 135.647L207.636 147.468H204.481L196.992 137.456L194.3 140.485V147.468H191.692ZM211.012 147.468V125.928H224.012V128.242H213.62V135.52H223.338V137.834H213.62V145.154H224.18V147.468H211.012ZM228.713 147.468V125.928H241.712V128.242H231.321V135.52H241.039V137.834H231.321V145.154H241.881V147.468H228.713ZM246.414 147.468V125.928H253.692C255.382 125.928 256.763 126.233 257.836 126.843C258.915 127.446 259.715 128.263 260.234 129.294C260.752 130.325 261.012 131.475 261.012 132.744C261.012 134.013 260.752 135.166 260.234 136.204C259.722 137.242 258.929 138.069 257.857 138.686C256.784 139.296 255.41 139.601 253.734 139.601H248.517V137.287H253.65C254.807 137.287 255.736 137.087 256.437 136.688C257.138 136.288 257.646 135.748 257.962 135.068C258.284 134.381 258.446 133.606 258.446 132.744C258.446 131.881 258.284 131.11 257.962 130.43C257.646 129.75 257.134 129.217 256.426 128.831C255.718 128.439 254.779 128.242 253.608 128.242H249.022V147.468H246.414ZM272.365 128.242V125.928H288.52V128.242H281.747V147.468H279.139V128.242H272.365ZM292.546 147.468V125.928H295.154V135.52H306.639V125.928H309.247V147.468H306.639V137.834H295.154V147.468H292.546ZM314.469 147.468V125.928H327.469V128.242H317.078V135.52H326.796V137.834H317.078V145.154H327.637V147.468H314.469ZM340.5 147.468V125.928H353.415V128.242H343.108V135.52H352.448V137.834H343.108V147.468H340.5ZM357.882 147.468V125.928H360.491V145.154H370.503V147.468H357.882ZM391.877 136.698C391.877 138.97 391.467 140.933 390.647 142.588C389.826 144.243 388.701 145.519 387.271 146.416C385.84 147.314 384.207 147.763 382.37 147.763C380.533 147.763 378.899 147.314 377.468 146.416C376.038 145.519 374.913 144.243 374.092 142.588C373.272 140.933 372.862 138.97 372.862 136.698C372.862 134.426 373.272 132.463 374.092 130.809C374.913 129.154 376.038 127.878 377.468 126.98C378.899 126.083 380.533 125.634 382.37 125.634C384.207 125.634 385.84 126.083 387.271 126.98C388.701 127.878 389.826 129.154 390.647 130.809C391.467 132.463 391.877 134.426 391.877 136.698ZM389.353 136.698C389.353 134.833 389.041 133.259 388.417 131.976C387.8 130.693 386.962 129.722 385.903 129.063C384.852 128.404 383.674 128.074 382.37 128.074C381.065 128.074 379.884 128.404 378.825 129.063C377.773 129.722 376.936 130.693 376.312 131.976C375.695 133.259 375.386 134.833 375.386 136.698C375.386 138.563 375.695 140.137 376.312 141.421C376.936 142.704 377.773 143.675 378.825 144.334C379.884 144.993 381.065 145.323 382.37 145.323C383.674 145.323 384.852 144.993 385.903 144.334C386.962 143.675 387.8 142.704 388.417 141.421C389.041 140.137 389.353 138.563 389.353 136.698ZM400.176 147.468L394.286 125.928H396.936L401.438 143.471H401.648L406.234 125.928H409.178L413.764 143.471H413.974L418.476 125.928H421.126L415.236 147.468H412.544L407.79 130.304H407.622L402.868 147.468H400.176Z" fill="#00043C"/>
</svg>
